<?xml version="1.0" encoding="UTF-8" standalone="no"?>
<!-- Created with Inkscape (http://www.inkscape.org/) -->
<svg
   xmlns:dc="http://purl.org/dc/elements/1.1/"
   xmlns:cc="http://creativecommons.org/ns#"
   xmlns:rdf="http://www.w3.org/1999/02/22-rdf-syntax-ns#"
   xmlns:svg="http://www.w3.org/2000/svg"
   xmlns="http://www.w3.org/2000/svg"
   xmlns:xlink="http://www.w3.org/1999/xlink"
   xmlns:sodipodi="http://sodipodi.sourceforge.net/DTD/sodipodi-0.dtd"
   xmlns:inkscape="http://www.inkscape.org/namespaces/inkscape"
   width="756.48065"
   height="267.67328"
   id="svg2470"
   sodipodi:version="0.32"
   inkscape:version="0.46"
   sodipodi:docname="climate_cartoon_new.svg"
   inkscape:output_extension="org.inkscape.output.svg.inkscape"
   version="1.0">
  <defs
     id="defs2472">
    <marker
       inkscape:stockid="Arrow2Lend"
       orient="auto"
       refY="0"
       refX="0"
       id="Arrow2Lend"
       style="overflow:visible">
      <path
         id="path3314"
         style="font-size:12px;fill-rule:evenodd;stroke-width:0.625;stroke-linejoin:round"
         d="M 8.7185878,4.0337352 L -2.2072895,0.016013256 L 8.7185884,-4.0017078 C 6.97309,-1.6296469 6.9831476,1.6157441 8.7185878,4.0337352 z"
         transform="matrix(-1.1,0,0,-1.1,-1.1,0)" />
    </marker>
    <inkscape:perspective
       sodipodi:type="inkscape:persp3d"
       inkscape:vp_x="0 : 526.18109 : 1"
       inkscape:vp_y="0 : 1000 : 0"
       inkscape:vp_z="744.09448 : 526.18109 : 1"
       inkscape:persp3d-origin="372.04724 : 350.78739 : 1"
       id="perspective2478" />
  </defs>
  <sodipodi:namedview
     id="base"
     pagecolor="#ffffff"
     bordercolor="#666666"
     borderopacity="1.0"
     gridtolerance="10000"
     guidetolerance="10"
     objecttolerance="10"
     inkscape:pageopacity="0.0"
     inkscape:pageshadow="2"
     inkscape:zoom="0.97401252"
     inkscape:cx="371.33518"
     inkscape:cy="133.0422"
     inkscape:document-units="px"
     inkscape:current-layer="layer1"
     showgrid="false"
     showguides="false"
     inkscape:guide-bbox="true">
    <inkscape:grid
       type="xygrid"
       id="grid2480"
       visible="true"
       enabled="true" />
    <sodipodi:guide
       orientation="0,1"
       position="335.58307,599.37904"
       id="guide2482" />
    <sodipodi:guide
       orientation="0,1"
       position="439.67157,617.72039"
       id="guide2484" />
    <sodipodi:guide
       orientation="1,0"
       position="544.89004,692.78876"
       id="guide2486" />
    <sodipodi:guide
       orientation="1,0"
       position="113.30253,710.95177"
       id="guide2488" />
    <sodipodi:guide
       orientation="0,1"
       position="329.52874,512.02366"
       id="guide2492" />
    <sodipodi:guide
       orientation="0,1"
       position="524.96748,613.64008"
       id="guide2496" />
    <sodipodi:guide
       orientation="1,0"
       position="65.459906,591.00943"
       id="guide2502" />
    <sodipodi:guide
       orientation="0,1"
       position="630.48758,102.07511"
       id="guide6705" />
  </sodipodi:namedview>
  <metadata
     id="metadata2475">
    <rdf:RDF>
      <cc:Work
         rdf:about="">
        <dc:format>image/svg+xml</dc:format>
        <dc:type
           rdf:resource="http://purl.org/dc/dcmitype/StillImage" />
      </cc:Work>
    </rdf:RDF>
  </metadata>
  <g
     inkscape:label="Layer 1"
     inkscape:groupmode="layer"
     id="layer1"
     transform="translate(-64.275958,-273.9597)">
    <path
       style="fill:none;fill-rule:evenodd;stroke:#000000;stroke-width:1px;stroke-linecap:butt;stroke-linejoin:miter;stroke-opacity:1"
       d="M 65.732767,540.33852 C 65.732767,540.33852 120.62305,430.4601 160.00739,407.14318 C 199.39174,383.82627 246.20796,425.51302 299.25707,426.17109 C 352.30618,426.82916 458.89636,438.51988 500.77989,468.55143 C 542.66342,498.58298 624.46128,540.33852 624.46128,540.33852"
       id="path2490"
       sodipodi:nodetypes="czzzc" />
    <path
       style="fill:none;fill-rule:evenodd;stroke:#000000;stroke-width:1px;stroke-linecap:butt;stroke-linejoin:miter;stroke-opacity:1"
       d="M 544.89004,497.10364 C 544.89004,497.10364 544.26588,484.67678 548.21478,476.6731 C 552.16367,468.66943 553.68262,466.24773 575.02009,459.00922 C 596.35756,451.77071 686.99522,452.98314 686.99522,452.98314 L 687.19917,434.64179 C 687.19917,434.64179 565.81787,438.11788 544.89004,425.16516 C 523.96221,412.21244 509.19648,364.10094 489.06889,346.87312 C 468.94131,329.6453 457.18852,323.02288 429.81987,309.94605 C 402.45121,296.86922 352.15412,292.55325 325.77256,292.2262 C 299.391,291.89915 258.62334,300.27373 237.62769,312.67218 C 216.63204,325.07063 197.11698,352.26929 189.46605,366.28607 C 181.81512,380.30285 180.37895,399.45399 180.37895,399.45399"
       id="path2494"
       sodipodi:nodetypes="czzcczzzzzzc" />
    <path
       style="fill:none;fill-rule:evenodd;stroke:#000000;stroke-width:1px;stroke-linecap:butt;stroke-linejoin:miter;stroke-opacity:1"
       d="M 687.62976,436.50473 C 687.62976,436.50473 690.79123,439.10157 692.29314,438.7221 C 693.76404,438.35046 695.28062,434.64179 695.28062,434.64179 C 695.28062,434.64179 696.69448,438.61866 698.19523,438.7221 C 699.87667,438.83799 702.05709,434.64179 702.05709,434.64179 C 702.05709,434.64179 703.59067,438.62051 705.11743,438.7221 C 706.82942,438.83602 709.12502,434.64179 709.12502,434.64179 C 709.12502,434.64179 710.68787,438.68801 712.25823,438.7221 C 713.82859,438.75619 715.6829,434.64179 715.6829,434.64179 C 715.6829,434.64179 717.457,438.60513 719.18043,438.7221 C 720.90386,438.83907 723.77095,434.64179 723.77095,434.64179 C 723.77095,434.64179 725.97713,438.75443 727.63281,438.7221 C 729.28849,438.68977 731.20321,434.64179 731.20321,434.64179 L 733.40404,437.48709"
       id="path2498"
       sodipodi:nodetypes="cscscsczczczcc" />
    <path
       sodipodi:nodetypes="cscscsczczczcc"
       id="path2500"
       d="M 64.844534,436.51126 C 64.844534,436.51126 69.073519,439.02162 71.082571,438.65479 C 73.050141,438.29552 75.078816,434.71037 75.078816,434.71037 C 75.078816,434.71037 76.970086,438.55479 78.977586,438.65479 C 81.226789,438.76682 84.143459,434.71037 84.143459,434.71037 C 84.143459,434.71037 86.194874,438.55658 88.237167,438.65479 C 90.527235,438.76491 93.59797,434.71037 93.59797,434.71037 C 93.59797,434.71037 95.688539,438.62183 97.789154,438.65479 C 99.889768,438.68774 102.37021,434.71037 102.37021,434.71037 C 102.37021,434.71037 104.74336,438.54171 107.04873,438.65479 C 109.3541,438.76786 113.18931,434.71037 113.18931,434.71037 C 113.18931,434.71037 116.14044,438.68604 118.35518,438.65479 C 120.56993,438.62353 123.13118,434.71037 123.13118,434.71037 L 127.41982,438.65479"
       style="fill:none;fill-rule:evenodd;stroke:#000000;stroke-width:1.13715208px;stroke-linecap:butt;stroke-linejoin:miter;stroke-opacity:1" />
    <path
       sodipodi:nodetypes="czzcczzzzzzzczcc"
       id="path2504"
       d="M 73.347215,540.33852 L 113.30253,467.9972 C 113.30253,467.9972 129.06481,446.90643 137.33415,436.55563 C 145.5589,426.26065 160.90678,412.9222 160.90678,412.9222 C 160.90678,412.9222 182.56656,406.21371 185.80233,400.82087 C 189.0381,395.42803 189.32986,383.11776 196.58445,369.82709 C 203.83904,356.53642 222.34317,330.74673 242.25118,318.99055 C 262.1592,307.23437 300.81498,299.29362 325.8299,299.60373 C 350.84483,299.91384 398.53639,304.00623 424.48727,316.40564 C 450.43815,328.80506 461.58211,335.08442 480.66703,351.41979 C 499.75195,367.75516 520.45882,417.35606 540.30253,429.63779 C 560.14624,441.91952 682.9935,438.7221 682.9935,438.7221 L 682.80011,450.3565 C 682.80011,450.3565 585.33174,449.62601 565.09961,456.48954 C 544.86748,463.35308 546.15154,468.58322 542.40722,476.17228 C 538.66288,483.76134 538.62602,494.49664 538.62602,494.49664 L 540.27503,499.70227 L 614.82955,540.33852"
       style="fill:none;fill-rule:evenodd;stroke:#000000;stroke-width:0.94800001;stroke-linecap:butt;stroke-linejoin:miter;stroke-miterlimit:4;stroke-dasharray:7.584, 3.792;stroke-dashoffset:0;stroke-opacity:1" />
    <text
       xml:space="preserve"
       style="font-size:32px;font-style:normal;font-variant:normal;font-weight:normal;font-stretch:normal;fill:#000000;fill-opacity:1;stroke:none;stroke-width:1px;stroke-linecap:butt;stroke-linejoin:miter;stroke-opacity:1;font-family:Sans;-inkscape-font-specification:Utopia"
       x="183.078"
       y="486.48474"
       id="text3276"><tspan
         sodipodi:role="line"
         id="tspan3278"
         x="183.078"
         y="486.48474"
         style="font-size:32px">PISM</tspan></text>
    <text
       xml:space="preserve"
       style="font-size:32px;font-style:normal;font-variant:normal;font-weight:normal;font-stretch:normal;fill:#000000;fill-opacity:1;stroke:none;stroke-width:1px;stroke-linecap:butt;stroke-linejoin:miter;stroke-opacity:1;font-family:Sans;-inkscape-font-specification:Utopia"
       x="342.65936"
       y="374.87564"
       id="text3280"><tspan
         sodipodi:role="line"
         id="tspan3282"
         x="342.65936"
         y="374.87564"
         style="font-size:20px;font-style:italic;-inkscape-font-specification:Sans Italic">ice</tspan></text>
    <text
       xml:space="preserve"
       style="font-size:32px;font-style:normal;font-variant:normal;font-weight:normal;font-stretch:normal;fill:#000000;fill-opacity:1;stroke:none;stroke-width:1px;stroke-linecap:butt;stroke-linejoin:miter;stroke-opacity:1;font-family:Sans;-inkscape-font-specification:Utopia"
       x="398.4639"
       y="509.98135"
       id="text3284"><tspan
         sodipodi:role="line"
         id="tspan3286"
         x="398.4639"
         y="509.98135"
         style="font-size:20px;font-style:italic;-inkscape-font-specification:Sans Italic">bedrock</tspan></text>
    <path
       style="fill:none;fill-rule:evenodd;stroke:#000000;stroke-width:1px;stroke-linecap:butt;stroke-linejoin:miter;marker-end:url(#Arrow2Lend);stroke-opacity:1"
       d="M 267.2743,457.11392 L 332.86909,389.56107"
       id="path3288"
       sodipodi:nodetypes="cc" />
    <path
       style="fill:none;fill-rule:evenodd;stroke:#000000;stroke-width:1px;stroke-linecap:butt;stroke-linejoin:miter;marker-end:url(#Arrow2Lend);stroke-opacity:1"
       d="M 271.19042,485.5057 L 383.77848,500.1911"
       id="path4583"
       sodipodi:nodetypes="cc" />
    <text
       id="text5100"
       y="340.62216"
       x="671.09772"
       style="font-size:32px;font-style:normal;font-variant:normal;font-weight:normal;font-stretch:normal;fill:#000000;fill-opacity:1;stroke:none;stroke-width:1px;stroke-linecap:butt;stroke-linejoin:miter;stroke-opacity:1;font-family:Sans;-inkscape-font-specification:Utopia"
       xml:space="preserve"><tspan
         style="font-size:20px;font-style:italic;-inkscape-font-specification:Sans Italic"
         y="340.62216"
         x="671.09772"
         id="tspan5102"
         sodipodi:role="line">air</tspan></text>
    <text
       xml:space="preserve"
       style="font-size:32px;font-style:normal;font-variant:normal;font-weight:normal;font-stretch:normal;fill:#000000;fill-opacity:1;stroke:none;stroke-width:1px;stroke-linecap:butt;stroke-linejoin:miter;stroke-opacity:1;font-family:Sans;-inkscape-font-specification:Utopia"
       x="655.01862"
       y="497.40753"
       id="text5104"><tspan
         sodipodi:role="line"
         id="tspan5106"
         x="655.01862"
         y="497.40753"
         style="font-size:20px;font-style:italic;-inkscape-font-specification:Sans Italic">ocean</tspan></text>
    <path
       sodipodi:nodetypes="cscscsczczczcc"
       id="path6707"
       d="M 732.25361,435.9779 C 732.25361,435.9779 734.21323,439.14289 735.71514,438.76342 C 737.18604,438.39178 738.70262,434.68311 738.70262,434.68311 C 738.70262,434.68311 740.11648,438.65998 741.61723,438.76342 C 743.29867,438.87931 745.47909,434.68311 745.47909,434.68311 C 745.47909,434.68311 747.01267,438.66183 748.53943,438.76342 C 750.25142,438.87734 752.54702,434.68311 752.54702,434.68311 C 752.54702,434.68311 754.10987,438.72933 755.68023,438.76342 C 757.25059,438.79751 759.1049,434.68311 759.1049,434.68311 C 759.1049,434.68311 760.879,438.64645 762.60243,438.76342 C 764.32586,438.88039 767.19295,434.68311 767.19295,434.68311 C 767.19295,434.68311 769.39913,438.79575 771.05481,438.76342 C 772.71049,438.73109 774.62521,434.68311 774.62521,434.68311 L 776.96964,437.72946"
       style="fill:none;fill-rule:evenodd;stroke:#000000;stroke-width:1px;stroke-linecap:butt;stroke-linejoin:miter;stroke-opacity:1" />
    <path
       style="fill:none;fill-rule:evenodd;stroke:#000000;stroke-width:1px;stroke-linecap:butt;stroke-linejoin:miter;stroke-opacity:1"
       d="M 775.62953,435.9779 C 775.62953,435.9779 777.58915,439.14289 779.09106,438.76342 C 780.56196,438.39178 782.07854,434.68311 782.07854,434.68311 C 782.07854,434.68311 783.4924,438.65998 784.99315,438.76342 C 786.67459,438.87931 788.85501,434.68311 788.85501,434.68311 C 788.85501,434.68311 790.38859,438.66183 791.91535,438.76342 C 793.62734,438.87734 795.92294,434.68311 795.92294,434.68311 C 795.92294,434.68311 797.48579,438.72933 799.05615,438.76342 C 800.62651,438.79751 802.48082,434.68311 802.48082,434.68311 C 802.48082,434.68311 804.25492,438.64645 805.97835,438.76342 C 807.70178,438.88039 810.56887,434.68311 810.56887,434.68311 C 810.56887,434.68311 812.77505,438.79575 814.43073,438.76342 C 816.08641,438.73109 818.00113,434.68311 818.00113,434.68311 L 820.25661,437.48379"
       id="path6709"
       sodipodi:nodetypes="cscscsczczczcc" />
    <path
       style="fill:none;fill-rule:evenodd;stroke:#e10000;stroke-width:3;stroke-linecap:butt;stroke-linejoin:miter;stroke-miterlimit:4;stroke-dasharray:6, 6;stroke-dashoffset:0;stroke-opacity:1"
       d="M 127.73453,437.65198 C 127.73453,437.65198 126.50227,436.42816 118.93387,429.14849 C 135.21842,411.70251 152.49665,395.25779 169.49464,378.52331 C 179.74329,360.60771 179.53904,348.64082 190.6579,330.92093 C 196.7188,322.61042 207.47238,312.09963 215.16699,305.27379 C 234.1068,292.09576 256.67459,283.66404 279.19426,278.98086 C 290.95879,276.90166 306.85461,275.80741 318.79829,275.53193 C 332.10592,275.225 349.86741,275.9043 363.09228,277.41754 C 387.67165,279.77938 411.70132,285.08193 434.48376,294.61403 C 446.06004,299.74846 460.86237,308.03857 471.48227,314.93715 C 509.68867,335.64601 525.29345,371.60857 549.01054,406.69558 C 561.84098,417.80858 577.40485,421.86664 593.35111,422.72061 C 625.9237,424.90439 656.10311,422.93191 687.64823,423.73191 L 687.66706,432.8425"
       id="path2417"
       sodipodi:nodetypes="ccccccsccccccs" />
    <text
       xml:space="preserve"
       style="font-size:12px;font-style:normal;font-variant:normal;font-weight:normal;font-stretch:normal;writing-mode:lr-tb;fill:#000000;fill-opacity:1;stroke:none;stroke-width:1px;stroke-linecap:butt;stroke-linejoin:miter;stroke-opacity:1;font-family:Sans;-inkscape-font-specification:Sans"
       id="text3205"
       transform="translate(-1.451946,0.725973)"><textPath
         xlink:href="#path3209"
         id="textPath3211"><tspan
   style="font-size:14px"
   id="tspan3207">surface layer (possibly containing snow and firn)</tspan></textPath></text>
    <path
       style="fill:none;fill-rule:evenodd;stroke:#000000;stroke-width:1px;stroke-linecap:butt;stroke-linejoin:miter;stroke-opacity:1;display:none"
       d="M 146.64654,78.420927 C 146.64654,78.420927 165.20348,59.813693 174.95949,54.463818 C 186.55654,48.104379 204.12521,44.129818 217.06592,41.396305 C 231.86761,38.26969 252.03022,35.707716 267.15806,35.588521 C 280.29034,35.48505 297.72835,38.000898 310.71644,39.944359 C 323.89601,41.916472 341.68451,44.288605 354.27482,48.656034 C 367.89413,53.380411 384.88281,62.795267 397.10723,70.435224 C 408.44721,77.522427 423.714,87.374722 432.6799,97.296225 C 442.2464,107.88234 450.05243,125.69757 457.36298,137.95071 C 461.11409,144.23791 469.70453,159.00393 469.70453,159.00393"
       id="path3209"
       transform="translate(64.275958,251.88544)"
       sodipodi:nodetypes="csssssssss" />
    <path
       sodipodi:nodetypes="cczzcc"
       id="path3348"
       d="M 687.65221,434.33036 L 687.44831,452.67171 C 687.44831,452.67171 596.81061,451.45928 575.47321,458.69779 C 554.13571,465.9363 552.61671,468.358 548.66787,476.36167 C 544.71897,484.36535 545.64332,481.3271 545.34313,496.79221 C 563.56391,507.49918 624.31748,540.13297 624.31748,540.13297"
       style="fill:none;fill-rule:evenodd;stroke:#0000dc;stroke-width:3;stroke-linecap:butt;stroke-linejoin:miter;stroke-miterlimit:4;stroke-dasharray:6, 6;stroke-dashoffset:0;stroke-opacity:1" />
    <path
       style="fill:none;fill-rule:evenodd;stroke:#006a00;stroke-width:3;stroke-linecap:butt;stroke-linejoin:miter;stroke-miterlimit:4;stroke-dasharray:6, 6;stroke-dashoffset:0;stroke-opacity:1"
       d="M 63.798328,185.35139 C 63.798328,185.35139 84.795191,160.86013 96.544372,154.01681 C 101.89251,150.90178 116.30492,148.08865 116.30492,148.08865 C 116.30492,148.08865 118.21684,129.88163 121.10391,122.68223 C 125.50165,111.71573 135.26192,98.947349 142.55821,89.653894 C 148.66262,81.878574 157.15648,71.486115 165.14169,65.658948 C 173.40342,59.629988 186.25804,54.357831 195.91168,50.979686 C 205.10248,47.763502 217.92837,45.268308 227.52855,43.640056 C 237.60665,41.930746 251.1835,40.159467 261.40377,39.97024 C 275.74963,39.704628 294.90081,41.3743 309.11137,43.357762 C 321.79425,45.127996 338.71639,48.137332 350.8908,52.10886 C 361.84521,55.682401 375.79963,62.36311 385.89519,67.917295 C 395.7529,73.340625 408.47147,81.462208 417.22977,88.52472 C 421.93819,92.321491 427.59299,98.132329 431.62674,102.63939 C 434.28182,105.60601 437.61444,109.76529 439.81325,113.08425 C 445.31932,121.39531 450.66442,133.67889 455.90398,142.16048 C 460.54592,149.67466 466.64988,159.87347 472.55929,166.43772 C 475.09138,169.2504 478.74638,172.98459 482.15727,174.62423 C 490.24075,178.51001 502.61819,179.14119 511.5158,180.2701 C 523.6375,181.80807 539.95314,182.42946 552.16606,182.81074 C 572.98917,183.46083 621.61025,182.81074 621.61025,182.81074"
       id="path3350"
       transform="translate(64.275958,251.88544)"
       sodipodi:nodetypes="cscssssssssssssssssss" />
    <path
       style="opacity:1;fill:none;fill-opacity:1;fill-rule:evenodd;stroke:#0000dc;stroke-width:3;stroke-linecap:butt;stroke-linejoin:miter;marker:none;marker-start:none;marker-mid:none;marker-end:none;stroke-miterlimit:4;stroke-dasharray:6, 6;stroke-dashoffset:0;stroke-opacity:1;visibility:visible;display:inline;overflow:visible;enable-background:accumulate"
       d="M 63.325837,187.10404 C 63.325837,187.10404 51.161034,203.54611 46.302366,210.84813 C 39.263357,221.42695 30.588441,235.97256 24.274904,246.99973 C 17.268728,259.23665 1.5831459,288.16152 1.5831459,288.16152"
       id="path2418"
       transform="translate(64.275958,251.88544)"
       sodipodi:nodetypes="csss" />
  </g>
</svg>
